# xmcd CD database file
#
# Track frame offsets:
#	150
#	26887
#	58895
#	83515
#	107695
#	134915
#	158902
#	198562
#	219432
#	239675
#	276685
#
# Disc length: 4051 seconds
#
# Revision: 0
# Processed by: cddbd v1.5.2PL0 Copyright (c) Steve Scherf et al.
# Submitted via: CDex 1.70beta2
#
DISCID=af0fd10b
DTITLE=James Dean - Mise en Scene
DYEAR=1991
DGENRE=Jazz
TTITLE0=Newark 1947
TTITLE1=Room 608
TTITLE2=Infant Eyes
TTITLE3=Very Early
TTITLE4=Voyage
TTITLE5=Stranger In Town
TTITLE6=Beyond All Limits
TTITLE7=I Didn't Know About You
TTITLE8=Route 4
TTITLE9=Bergen County Mystique
TTITLE10=Children of The Night
EXTD=YEAR: 1991
EXTT0=
EXTT1=
EXTT2=
EXTT3=
EXTT4=
EXTT5=
EXTT6=
EXTT7=
EXTT8=
EXTT9=
EXTT10=
PLAYORDER=
